<mxfile>
    <diagram id="nOyjY47EV0AOrOA9MQXy" name="Page-1">
        <mxGraphModel dx="871" dy="475" grid="1" gridSize="10" guides="1" tooltips="1" connect="1" arrows="1" fold="1" page="1" pageScale="1" pageWidth="827" pageHeight="1169" math="0" shadow="0">
            <root>
                <mxCell id="0"/>
                <mxCell id="1" parent="0"/>
                <mxCell id="2" value="" style="rounded=0;whiteSpace=wrap;html=1;" parent="1" vertex="1">
                    <mxGeometry x="14" y="160" width="800" height="450" as="geometry"/>
                </mxCell>
                <mxCell id="4" value="Load new orders" style="rounded=0;whiteSpace=wrap;html=1;" parent="1" vertex="1">
                    <mxGeometry x="20" y="170" width="170" height="40" as="geometry"/>
                </mxCell>
                <mxCell id="3" value="" style="html=1;verticalLabelPosition=bottom;align=center;labelBackgroundColor=#ffffff;verticalAlign=top;strokeWidth=2;strokeColor=#0080F0;shadow=0;dashed=0;shape=mxgraph.ios7.icons.reload;" parent="1" vertex="1">
                    <mxGeometry x="28" y="176.5" width="24" height="27" as="geometry"/>
                </mxCell>
                <mxCell id="5" value="" style="rounded=0;whiteSpace=wrap;html=1;" parent="1" vertex="1">
                    <mxGeometry x="28" y="220" width="212" height="380" as="geometry"/>
                </mxCell>
                <mxCell id="6" value="" style="rounded=0;whiteSpace=wrap;html=1;" parent="1" vertex="1">
                    <mxGeometry x="250" y="220" width="550" height="380" as="geometry"/>
                </mxCell>
                <mxCell id="7" value="Order #1" style="rounded=0;whiteSpace=wrap;html=1;fillColor=#76608a;strokeColor=#432D57;fontColor=#ffffff;" parent="1" vertex="1">
                    <mxGeometry x="39.5" y="270" width="190" height="20" as="geometry"/>
                </mxCell>
                <mxCell id="8" value="&lt;span style=&quot;color: rgb(255 , 255 , 255)&quot;&gt;Order #2&lt;/span&gt;" style="rounded=0;whiteSpace=wrap;html=1;" parent="1" vertex="1">
                    <mxGeometry x="39.5" y="300" width="190" height="20" as="geometry"/>
                </mxCell>
                <mxCell id="9" value="&lt;span style=&quot;color: rgb(255 , 255 , 255)&quot;&gt;Order #3&lt;/span&gt;" style="rounded=0;whiteSpace=wrap;html=1;" parent="1" vertex="1">
                    <mxGeometry x="39.5" y="330" width="190" height="20" as="geometry"/>
                </mxCell>
                <mxCell id="10" value="&lt;span style=&quot;color: rgb(255 , 255 , 255)&quot;&gt;Order #4&lt;/span&gt;" style="rounded=0;whiteSpace=wrap;html=1;" parent="1" vertex="1">
                    <mxGeometry x="38.5" y="360" width="190" height="20" as="geometry"/>
                </mxCell>
                <mxCell id="11" value="&lt;span style=&quot;color: rgb(255 , 255 , 255)&quot;&gt;Order #5&lt;/span&gt;" style="rounded=0;whiteSpace=wrap;html=1;" parent="1" vertex="1">
                    <mxGeometry x="38.5" y="390" width="190" height="20" as="geometry"/>
                </mxCell>
                <mxCell id="12" value="&lt;span style=&quot;color: rgb(255 , 255 , 255)&quot;&gt;Order #6&lt;/span&gt;" style="rounded=0;whiteSpace=wrap;html=1;" parent="1" vertex="1">
                    <mxGeometry x="38.5" y="420" width="190" height="20" as="geometry"/>
                </mxCell>
                <mxCell id="13" value="&lt;span style=&quot;color: rgb(255 , 255 , 255)&quot;&gt;Order #7&lt;/span&gt;" style="rounded=0;whiteSpace=wrap;html=1;" parent="1" vertex="1">
                    <mxGeometry x="38.5" y="450" width="190" height="20" as="geometry"/>
                </mxCell>
                <mxCell id="14" value="&lt;span style=&quot;color: rgb(255 , 255 , 255)&quot;&gt;Order #8&lt;/span&gt;" style="rounded=0;whiteSpace=wrap;html=1;" parent="1" vertex="1">
                    <mxGeometry x="38.5" y="480" width="190" height="20" as="geometry"/>
                </mxCell>
                <mxCell id="15" value="&lt;span style=&quot;color: rgb(255 , 255 , 255)&quot;&gt;Order #9&lt;/span&gt;" style="rounded=0;whiteSpace=wrap;html=1;" parent="1" vertex="1">
                    <mxGeometry x="38.5" y="510" width="190" height="20" as="geometry"/>
                </mxCell>
                <mxCell id="16" value="&lt;span style=&quot;color: rgb(255 , 255 , 255)&quot;&gt;Order #10&lt;/span&gt;" style="rounded=0;whiteSpace=wrap;html=1;" parent="1" vertex="1">
                    <mxGeometry x="38.5" y="540" width="190" height="20" as="geometry"/>
                </mxCell>
                <mxCell id="17" value="&lt;span style=&quot;color: rgb(255 , 255 , 255)&quot;&gt;Order #11&lt;/span&gt;" style="rounded=0;whiteSpace=wrap;html=1;" parent="1" vertex="1">
                    <mxGeometry x="38.5" y="570" width="190" height="20" as="geometry"/>
                </mxCell>
                <mxCell id="18" value="New Orders" style="text;html=1;strokeColor=none;fillColor=none;align=center;verticalAlign=middle;whiteSpace=wrap;rounded=0;" parent="1" vertex="1">
                    <mxGeometry x="40" y="230" width="190" height="20" as="geometry"/>
                </mxCell>
                <mxCell id="19" value="Order Information" style="text;html=1;strokeColor=none;fillColor=none;align=center;verticalAlign=middle;whiteSpace=wrap;rounded=0;" parent="1" vertex="1">
                    <mxGeometry x="260" y="230" width="110" height="20" as="geometry"/>
                </mxCell>
                <mxCell id="20" value="" style="rounded=0;whiteSpace=wrap;html=1;" parent="1" vertex="1">
                    <mxGeometry x="560" y="230" width="230" height="220" as="geometry"/>
                </mxCell>
                <mxCell id="36" value="Packing List" style="text;html=1;strokeColor=none;fillColor=none;align=center;verticalAlign=middle;whiteSpace=wrap;rounded=0;" parent="1" vertex="1">
                    <mxGeometry x="570" y="230" width="80" height="20" as="geometry"/>
                </mxCell>
                <mxCell id="37" value="Location" style="rounded=0;whiteSpace=wrap;html=1;" parent="1" vertex="1">
                    <mxGeometry x="720" y="260" width="60" height="20" as="geometry"/>
                </mxCell>
                <mxCell id="38" value="Item" style="rounded=0;whiteSpace=wrap;html=1;" parent="1" vertex="1">
                    <mxGeometry x="570" y="260" width="150" height="20" as="geometry"/>
                </mxCell>
                <mxCell id="40" value="Item #1" style="rounded=0;whiteSpace=wrap;html=1;" parent="1" vertex="1">
                    <mxGeometry x="570" y="280" width="150" height="20" as="geometry"/>
                </mxCell>
                <mxCell id="41" value="Item #2" style="rounded=0;whiteSpace=wrap;html=1;" parent="1" vertex="1">
                    <mxGeometry x="570" y="300" width="150" height="20" as="geometry"/>
                </mxCell>
                <mxCell id="42" value="Item #3" style="rounded=0;whiteSpace=wrap;html=1;" parent="1" vertex="1">
                    <mxGeometry x="570" y="320" width="150" height="20" as="geometry"/>
                </mxCell>
                <mxCell id="43" value="AA45" style="rounded=0;whiteSpace=wrap;html=1;" parent="1" vertex="1">
                    <mxGeometry x="720" y="280" width="60" height="20" as="geometry"/>
                </mxCell>
                <mxCell id="44" value="CB24" style="rounded=0;whiteSpace=wrap;html=1;" parent="1" vertex="1">
                    <mxGeometry x="720" y="300" width="60" height="20" as="geometry"/>
                </mxCell>
                <mxCell id="45" value="LK01" style="rounded=0;whiteSpace=wrap;html=1;" parent="1" vertex="1">
                    <mxGeometry x="720" y="320" width="60" height="20" as="geometry"/>
                </mxCell>
                <mxCell id="46" value="Mark order as processed" style="rounded=0;whiteSpace=wrap;html=1;fillColor=#6d8764;strokeColor=#3A5431;fontColor=#ffffff;" parent="1" vertex="1">
                    <mxGeometry x="660" y="550" width="130" height="30" as="geometry"/>
                </mxCell>
                <mxCell id="47" value="Print Address Label" style="rounded=0;whiteSpace=wrap;html=1;fillColor=#6d8764;strokeColor=#3A5431;fontColor=#ffffff;" parent="1" vertex="1">
                    <mxGeometry x="510" y="550" width="130" height="30" as="geometry"/>
                </mxCell>
                <mxCell id="49" value="" style="rounded=0;whiteSpace=wrap;html=1;" parent="1" vertex="1">
                    <mxGeometry x="260" y="260" width="200" height="180" as="geometry"/>
                </mxCell>
                <mxCell id="50" value="Name: John Doe&lt;br&gt;Address: 1 Baker Street&lt;br&gt;Postcode: AA11 1AA&lt;br&gt;Town: Basingstoke&lt;br&gt;County: Hampshire&lt;br&gt;" style="text;html=1;strokeColor=none;fillColor=none;align=left;verticalAlign=top;whiteSpace=wrap;rounded=0;" parent="1" vertex="1">
                    <mxGeometry x="270" y="270" width="170" height="160" as="geometry"/>
                </mxCell>
            </root>
        </mxGraphModel>
    </diagram>
</mxfile>